G04 EAGLE Gerber RS-274X export*
G75*
%MOMM*%
%FSLAX34Y34*%
%LPD*%
%INTop Copper*%
%IPPOS*%
%AMOC8*
5,1,8,0,0,1.08239X$1,22.5*%
G01*
%ADD10C,0.654800*%

G36*
X93984Y5090D02*
X93984Y5090D01*
X94048Y5089D01*
X94123Y5110D01*
X94199Y5121D01*
X94258Y5147D01*
X94320Y5164D01*
X94386Y5205D01*
X94456Y5237D01*
X94505Y5279D01*
X94560Y5312D01*
X94612Y5370D01*
X94670Y5420D01*
X94706Y5474D01*
X94749Y5522D01*
X94782Y5591D01*
X94825Y5656D01*
X94844Y5718D01*
X94872Y5775D01*
X94883Y5845D01*
X94907Y5926D01*
X94908Y6011D01*
X94919Y6080D01*
X94919Y140000D01*
X94910Y140062D01*
X94911Y140107D01*
X94911Y140108D01*
X94911Y140128D01*
X94890Y140203D01*
X94879Y140279D01*
X94853Y140338D01*
X94836Y140400D01*
X94795Y140466D01*
X94763Y140536D01*
X94721Y140585D01*
X94688Y140640D01*
X94630Y140692D01*
X94580Y140750D01*
X94526Y140786D01*
X94478Y140829D01*
X94409Y140862D01*
X94344Y140905D01*
X94282Y140924D01*
X94225Y140952D01*
X94155Y140963D01*
X94074Y140987D01*
X93989Y140988D01*
X93920Y140999D01*
X6080Y140999D01*
X6016Y140990D01*
X5952Y140991D01*
X5877Y140970D01*
X5801Y140959D01*
X5742Y140933D01*
X5680Y140916D01*
X5614Y140875D01*
X5544Y140843D01*
X5495Y140801D01*
X5440Y140768D01*
X5388Y140710D01*
X5330Y140660D01*
X5294Y140606D01*
X5251Y140558D01*
X5218Y140489D01*
X5175Y140424D01*
X5156Y140362D01*
X5128Y140305D01*
X5117Y140235D01*
X5093Y140154D01*
X5092Y140069D01*
X5081Y140000D01*
X5081Y6080D01*
X5090Y6016D01*
X5089Y5952D01*
X5110Y5877D01*
X5121Y5801D01*
X5147Y5742D01*
X5164Y5680D01*
X5205Y5614D01*
X5237Y5544D01*
X5279Y5495D01*
X5312Y5440D01*
X5370Y5388D01*
X5420Y5330D01*
X5474Y5294D01*
X5522Y5251D01*
X5591Y5218D01*
X5656Y5175D01*
X5718Y5156D01*
X5775Y5128D01*
X5845Y5117D01*
X5926Y5093D01*
X6011Y5092D01*
X6080Y5081D01*
X93920Y5081D01*
X93984Y5090D01*
G37*
G36*
X93984Y159010D02*
X93984Y159010D01*
X94048Y159009D01*
X94123Y159030D01*
X94199Y159041D01*
X94258Y159067D01*
X94320Y159084D01*
X94386Y159125D01*
X94456Y159157D01*
X94505Y159199D01*
X94560Y159232D01*
X94612Y159290D01*
X94670Y159340D01*
X94706Y159394D01*
X94749Y159442D01*
X94782Y159511D01*
X94825Y159576D01*
X94844Y159638D01*
X94872Y159695D01*
X94883Y159765D01*
X94907Y159846D01*
X94908Y159931D01*
X94919Y160000D01*
X94919Y293920D01*
X94910Y293982D01*
X94911Y294027D01*
X94911Y294028D01*
X94911Y294048D01*
X94890Y294123D01*
X94879Y294199D01*
X94853Y294258D01*
X94836Y294320D01*
X94795Y294386D01*
X94763Y294456D01*
X94721Y294505D01*
X94688Y294560D01*
X94630Y294612D01*
X94580Y294670D01*
X94526Y294706D01*
X94478Y294749D01*
X94409Y294782D01*
X94344Y294825D01*
X94282Y294844D01*
X94225Y294872D01*
X94155Y294883D01*
X94074Y294907D01*
X93989Y294908D01*
X93920Y294919D01*
X6080Y294919D01*
X6016Y294910D01*
X5952Y294911D01*
X5877Y294890D01*
X5801Y294879D01*
X5742Y294853D01*
X5680Y294836D01*
X5614Y294795D01*
X5544Y294763D01*
X5495Y294721D01*
X5440Y294688D01*
X5388Y294630D01*
X5330Y294580D01*
X5294Y294526D01*
X5251Y294478D01*
X5218Y294409D01*
X5175Y294344D01*
X5156Y294282D01*
X5128Y294225D01*
X5117Y294155D01*
X5093Y294074D01*
X5092Y293989D01*
X5081Y293920D01*
X5081Y160000D01*
X5090Y159936D01*
X5089Y159872D01*
X5110Y159797D01*
X5121Y159721D01*
X5147Y159662D01*
X5164Y159600D01*
X5205Y159534D01*
X5237Y159464D01*
X5279Y159415D01*
X5312Y159360D01*
X5370Y159308D01*
X5420Y159250D01*
X5474Y159214D01*
X5522Y159171D01*
X5591Y159138D01*
X5656Y159095D01*
X5718Y159076D01*
X5775Y159048D01*
X5845Y159037D01*
X5926Y159013D01*
X6011Y159012D01*
X6080Y159001D01*
X93920Y159001D01*
X93984Y159010D01*
G37*
D10*
X20000Y130000D03*
X20000Y170000D03*
M02*
