G04 EAGLE Gerber RS-274X export*
G75*
%MOMM*%
%FSLAX34Y34*%
%LPD*%
%IN*%
%IPPOS*%
%AMOC8*
5,1,8,0,0,1.08239X$1,22.5*%
G01*
%ADD10C,0.254000*%


D10*
X0Y0D02*
X205000Y0D01*
X205000Y420000D01*
X795000Y420000D01*
X795000Y0D01*
X1000000Y0D01*
X1000000Y954849D01*
X969303Y960261D01*
X727725Y990694D01*
X484415Y999957D01*
X241223Y987978D01*
X0Y954849D01*
X0Y0D01*
X557500Y966168D02*
X557431Y965207D01*
X557294Y964252D01*
X557089Y963310D01*
X556817Y962385D01*
X556480Y961481D01*
X556080Y960604D01*
X555618Y959758D01*
X555096Y958946D01*
X554518Y958174D01*
X553887Y957446D01*
X553205Y956764D01*
X552476Y956132D01*
X551704Y955554D01*
X550893Y955033D01*
X550047Y954571D01*
X549170Y954170D01*
X548266Y953833D01*
X547341Y953562D01*
X546399Y953357D01*
X545444Y953219D01*
X544482Y953151D01*
X543518Y953151D01*
X542556Y953219D01*
X541602Y953357D01*
X540659Y953562D01*
X539734Y953833D01*
X538830Y954170D01*
X537953Y954571D01*
X537107Y955033D01*
X536296Y955554D01*
X535524Y956132D01*
X534795Y956764D01*
X534113Y957446D01*
X533482Y958174D01*
X532904Y958946D01*
X532382Y959758D01*
X531920Y960604D01*
X531520Y961481D01*
X531183Y962385D01*
X530911Y963310D01*
X530706Y964252D01*
X530569Y965207D01*
X530500Y966168D01*
X530500Y967133D01*
X530569Y968095D01*
X530706Y969049D01*
X530911Y969991D01*
X531183Y970917D01*
X531520Y971820D01*
X531920Y972697D01*
X532382Y973544D01*
X532904Y974355D01*
X533482Y975127D01*
X534113Y975856D01*
X534795Y976538D01*
X535524Y977169D01*
X536296Y977747D01*
X537107Y978268D01*
X537953Y978730D01*
X538830Y979131D01*
X539734Y979468D01*
X540659Y979740D01*
X541602Y979945D01*
X542556Y980082D01*
X543518Y980151D01*
X544482Y980151D01*
X545444Y980082D01*
X546399Y979945D01*
X547341Y979740D01*
X548266Y979468D01*
X549170Y979131D01*
X550047Y978730D01*
X550893Y978268D01*
X551704Y977747D01*
X552476Y977169D01*
X553205Y976538D01*
X553887Y975856D01*
X554518Y975127D01*
X555096Y974355D01*
X555618Y973544D01*
X556080Y972697D01*
X556480Y971820D01*
X556817Y970917D01*
X557089Y969991D01*
X557294Y969049D01*
X557431Y968095D01*
X557500Y967133D01*
X557500Y966168D01*
X260438Y983801D02*
X260421Y983310D01*
X260340Y982825D01*
X260196Y982355D01*
X259993Y981908D01*
X259732Y981491D01*
X259419Y981112D01*
X259060Y980777D01*
X258660Y980491D01*
X258226Y980260D01*
X257765Y980088D01*
X257286Y979978D01*
X256797Y979930D01*
X256306Y979948D01*
X255821Y980029D01*
X255351Y980172D01*
X254903Y980376D01*
X254486Y980637D01*
X254107Y980949D01*
X253772Y981309D01*
X253486Y981709D01*
X253256Y982143D01*
X253084Y982604D01*
X252973Y983083D01*
X252926Y983572D01*
X252943Y984063D01*
X253024Y984548D01*
X253168Y985018D01*
X253372Y985465D01*
X253632Y985882D01*
X253945Y986262D01*
X254304Y986597D01*
X254705Y986882D01*
X255139Y987113D01*
X255599Y987285D01*
X256078Y987396D01*
X256567Y987443D01*
X257059Y987426D01*
X257543Y987345D01*
X258014Y987201D01*
X258461Y986997D01*
X258878Y986737D01*
X259257Y986424D01*
X259592Y986064D01*
X259878Y985664D01*
X260109Y985230D01*
X260281Y984770D01*
X260391Y984291D01*
X260438Y983801D01*
X263074Y956428D02*
X263057Y955937D01*
X262976Y955452D01*
X262832Y954982D01*
X262628Y954535D01*
X262368Y954118D01*
X262055Y953738D01*
X261696Y953403D01*
X261295Y953118D01*
X260861Y952887D01*
X260401Y952715D01*
X259922Y952604D01*
X259433Y952557D01*
X258941Y952574D01*
X258457Y952655D01*
X257986Y952799D01*
X257539Y953003D01*
X257122Y953263D01*
X256743Y953576D01*
X256408Y953936D01*
X256122Y954336D01*
X255891Y954770D01*
X255719Y955230D01*
X255609Y955709D01*
X255562Y956199D01*
X255579Y956690D01*
X255660Y957175D01*
X255804Y957645D01*
X256007Y958092D01*
X256268Y958509D01*
X256581Y958888D01*
X256940Y959223D01*
X257340Y959509D01*
X257774Y959740D01*
X258235Y959912D01*
X258714Y960022D01*
X259203Y960070D01*
X259694Y960052D01*
X260179Y959971D01*
X260649Y959828D01*
X261097Y959624D01*
X261514Y959363D01*
X261893Y959051D01*
X262228Y958691D01*
X262514Y958291D01*
X262744Y957857D01*
X262916Y957396D01*
X263027Y956917D01*
X263074Y956428D01*
X334919Y988708D02*
X334884Y988218D01*
X334786Y987736D01*
X334626Y987271D01*
X334407Y986831D01*
X334132Y986424D01*
X333806Y986055D01*
X333435Y985733D01*
X333025Y985462D01*
X332584Y985246D01*
X332117Y985090D01*
X331635Y984996D01*
X331144Y984966D01*
X330654Y985001D01*
X330172Y985099D01*
X329707Y985259D01*
X329267Y985478D01*
X328860Y985753D01*
X328492Y986079D01*
X328169Y986450D01*
X327898Y986860D01*
X327682Y987301D01*
X327526Y987768D01*
X327433Y988250D01*
X327403Y988741D01*
X327437Y989231D01*
X327535Y989713D01*
X327695Y990178D01*
X327914Y990618D01*
X328189Y991025D01*
X328515Y991393D01*
X328886Y991716D01*
X329296Y991987D01*
X329738Y992203D01*
X330204Y992359D01*
X330686Y992452D01*
X331177Y992482D01*
X331667Y992448D01*
X332149Y992350D01*
X332614Y992190D01*
X333054Y991971D01*
X333461Y991696D01*
X333829Y991370D01*
X334152Y990999D01*
X334423Y990589D01*
X334639Y990147D01*
X334795Y989681D01*
X334889Y989199D01*
X334919Y988708D01*
X336597Y961259D02*
X336563Y960769D01*
X336465Y960287D01*
X336305Y959822D01*
X336086Y959382D01*
X335811Y958975D01*
X335485Y958607D01*
X335114Y958284D01*
X334704Y958013D01*
X334262Y957797D01*
X333796Y957641D01*
X333314Y957548D01*
X332823Y957518D01*
X332333Y957552D01*
X331851Y957650D01*
X331386Y957810D01*
X330946Y958029D01*
X330539Y958304D01*
X330171Y958630D01*
X329848Y959001D01*
X329577Y959411D01*
X329361Y959853D01*
X329205Y960319D01*
X329111Y960801D01*
X329081Y961292D01*
X329116Y961782D01*
X329214Y962264D01*
X329374Y962729D01*
X329593Y963169D01*
X329868Y963576D01*
X330194Y963945D01*
X330565Y964267D01*
X330975Y964538D01*
X331416Y964754D01*
X331883Y964910D01*
X332365Y965004D01*
X332856Y965034D01*
X333346Y964999D01*
X333828Y964901D01*
X334293Y964741D01*
X334733Y964522D01*
X335140Y964247D01*
X335508Y963921D01*
X335831Y963550D01*
X336102Y963140D01*
X336318Y962699D01*
X336474Y962232D01*
X336567Y961750D01*
X336597Y961259D01*
X408276Y992627D02*
X408229Y992138D01*
X408119Y991659D01*
X407947Y991198D01*
X407716Y990764D01*
X407430Y990364D01*
X407095Y990004D01*
X406716Y989692D01*
X406299Y989431D01*
X405852Y989227D01*
X405381Y989084D01*
X404897Y989002D01*
X404405Y988985D01*
X403916Y989032D01*
X403437Y989143D01*
X402977Y989315D01*
X402543Y989546D01*
X402142Y989831D01*
X401783Y990167D01*
X401470Y990546D01*
X401210Y990963D01*
X401006Y991410D01*
X400862Y991880D01*
X400781Y992365D01*
X400764Y992856D01*
X400811Y993346D01*
X400922Y993825D01*
X401094Y994285D01*
X401324Y994719D01*
X401610Y995119D01*
X401945Y995479D01*
X402325Y995792D01*
X402741Y996052D01*
X403189Y996256D01*
X403659Y996400D01*
X404144Y996481D01*
X404635Y996498D01*
X405124Y996451D01*
X405603Y996340D01*
X406064Y996168D01*
X406498Y995937D01*
X406898Y995652D01*
X407257Y995317D01*
X407570Y994937D01*
X407831Y994520D01*
X408034Y994073D01*
X408178Y993603D01*
X408259Y993118D01*
X408276Y992627D01*
X409236Y965144D02*
X409189Y964654D01*
X409078Y964175D01*
X408906Y963715D01*
X408676Y963281D01*
X408390Y962881D01*
X408055Y962521D01*
X407675Y962208D01*
X407259Y961948D01*
X406811Y961744D01*
X406341Y961600D01*
X405856Y961519D01*
X405365Y961502D01*
X404876Y961549D01*
X404397Y961660D01*
X403936Y961832D01*
X403502Y962063D01*
X403102Y962348D01*
X402743Y962683D01*
X402430Y963063D01*
X402169Y963480D01*
X401966Y963927D01*
X401822Y964397D01*
X401741Y964882D01*
X401724Y965373D01*
X401771Y965862D01*
X401881Y966341D01*
X402053Y966802D01*
X402284Y967236D01*
X402570Y967636D01*
X402905Y967996D01*
X403284Y968308D01*
X403701Y968569D01*
X404148Y968773D01*
X404619Y968916D01*
X405103Y968998D01*
X405595Y969015D01*
X406084Y968968D01*
X406563Y968857D01*
X407023Y968685D01*
X407457Y968454D01*
X407858Y968169D01*
X408217Y967833D01*
X408530Y967454D01*
X408790Y967037D01*
X408994Y966590D01*
X409138Y966120D01*
X409219Y965635D01*
X409236Y965144D01*
X480750Y993504D02*
X480686Y993017D01*
X480559Y992542D01*
X480371Y992088D01*
X480125Y991662D01*
X479825Y991272D01*
X479478Y990925D01*
X479088Y990625D01*
X478662Y990380D01*
X478208Y990191D01*
X477733Y990064D01*
X477246Y990000D01*
X476754Y990000D01*
X476267Y990064D01*
X475792Y990191D01*
X475338Y990380D01*
X474912Y990625D01*
X474522Y990925D01*
X474175Y991272D01*
X473875Y991662D01*
X473630Y992088D01*
X473441Y992542D01*
X473314Y993017D01*
X473250Y993504D01*
X473250Y993996D01*
X473314Y994483D01*
X473441Y994958D01*
X473630Y995412D01*
X473875Y995838D01*
X474175Y996228D01*
X474522Y996575D01*
X474912Y996875D01*
X475338Y997121D01*
X475792Y997309D01*
X476267Y997436D01*
X476754Y997500D01*
X477246Y997500D01*
X477733Y997436D01*
X478208Y997309D01*
X478662Y997121D01*
X479088Y996875D01*
X479478Y996575D01*
X479825Y996228D01*
X480125Y995838D01*
X480371Y995412D01*
X480559Y994958D01*
X480686Y994483D01*
X480750Y993996D01*
X480750Y993504D01*
X480750Y966004D02*
X480686Y965517D01*
X480559Y965042D01*
X480371Y964588D01*
X480125Y964162D01*
X479825Y963772D01*
X479478Y963425D01*
X479088Y963125D01*
X478662Y962880D01*
X478208Y962691D01*
X477733Y962564D01*
X477246Y962500D01*
X476754Y962500D01*
X476267Y962564D01*
X475792Y962691D01*
X475338Y962880D01*
X474912Y963125D01*
X474522Y963425D01*
X474175Y963772D01*
X473875Y964162D01*
X473630Y964588D01*
X473441Y965042D01*
X473314Y965517D01*
X473250Y966004D01*
X473250Y966496D01*
X473314Y966983D01*
X473441Y967458D01*
X473630Y967912D01*
X473875Y968338D01*
X474175Y968728D01*
X474522Y969075D01*
X474912Y969375D01*
X475338Y969621D01*
X475792Y969809D01*
X476267Y969936D01*
X476754Y970000D01*
X477246Y970000D01*
X477733Y969936D01*
X478208Y969809D01*
X478662Y969621D01*
X479088Y969375D01*
X479478Y969075D01*
X479825Y968728D01*
X480125Y968338D01*
X480371Y967912D01*
X480559Y967458D01*
X480686Y966983D01*
X480750Y966496D01*
X480750Y966004D01*
M02*
